<?xml version="1.0" standalone="no"?>
<!DOCTYPE svg PUBLIC "-//W3C//DTD SVG 20010904//EN"
 "http://www.w3.org/TR/2001/REC-SVG-20010904/DTD/svg10.dtd">
<svg version="1.0" xmlns="http://www.w3.org/2000/svg"
 width="1024.000000pt" height="1024.000000pt" viewBox="0 0 1024.000000 1024.000000"
 preserveAspectRatio="xMidYMid meet">

<g transform="translate(0.000000,1024.000000) scale(0.100000,-0.100000)"
fill="#000000" stroke="none">
<path d="M5380 7199 c-130 -19 -313 -108 -416 -202 -135 -123 -228 -314 -248
-508 l-7 -67 -46 -5 c-57 -6 -92 -31 -120 -87 -28 -54 -29 -104 -4 -190 34
-122 92 -200 146 -200 28 0 41 -15 50 -58 13 -64 74 -203 119 -275 90 -144
204 -248 351 -318 110 -53 183 -70 296 -71 354 -1 687 285 788 678 9 35 16 42
42 48 51 10 95 66 125 159 58 179 19 298 -103 314 l-41 5 -6 60 c-54 476 -455
787 -926 717z m-146 -735 c48 -17 150 -101 161 -133 5 -16 17 -18 107 -16
l101 2 26 39 c49 72 148 124 237 124 92 0 202 -68 245 -151 17 -35 24 -39 56
-39 42 0 73 -23 73 -56 0 -26 -34 -54 -67 -54 -14 0 -23 -6 -23 -15 0 -44 -47
-133 -94 -180 -80 -79 -174 -102 -287 -69 -101 30 -199 161 -199 267 0 31 -24
47 -71 47 -45 0 -69 -25 -69 -70 0 -50 -53 -153 -98 -190 -47 -39 -130 -70
-187 -70 -69 0 -149 35 -204 89 -40 39 -54 62 -71 117 -17 58 -26 71 -52 84
-46 22 -55 42 -35 74 13 20 26 26 52 26 27 0 38 7 56 33 94 138 211 186 343
141z"/>
<path d="M5100 6381 c-93 -29 -143 -96 -143 -190 0 -61 11 -91 52 -134 38 -42
73 -57 131 -57 65 0 107 18 147 63 30 34 58 120 49 149 -3 7 -7 25 -10 40 -7
33 -59 94 -95 112 -35 18 -100 26 -131 17z"/>
<path d="M5806 6375 c-57 -20 -87 -46 -113 -95 -47 -88 -14 -205 71 -255 41
-24 55 -27 110 -23 75 5 124 36 156 98 22 43 26 122 9 167 -33 88 -145 140
-233 108z"/>
<path d="M1975 6853 c-42 -22 -74 -53 -92 -88 -14 -26 -16 -126 -16 -846 l0
-817 26 -45 c15 -25 44 -56 64 -69 l38 -23 1001 -3 c639 -1 1011 1 1028 7 19
8 38 36 76 110 54 109 61 144 31 161 -13 7 -357 10 -1043 10 -783 0 -1027 3
-1036 12 -9 9 -12 179 -12 704 0 628 2 693 16 705 14 11 218 14 1196 14 l1180
0 24 28 c32 37 32 87 0 124 l-24 28 -1214 2 c-1092 2 -1216 1 -1243 -14z"/>
<path d="M4758 5360 c-48 -16 -106 -39 -130 -51 -157 -80 -314 -223 -392 -355
-76 -129 -132 -338 -112 -418 15 -59 -58 -56 1389 -56 1315 0 1323 0 1345 20
32 30 37 64 23 158 -47 326 -270 572 -634 701 l-88 31 -82 -77 c-200 -187
-428 -286 -622 -270 -93 8 -242 57 -329 109 -78 46 -182 130 -241 193 l-40 44
-87 -29z"/>
<path d="M2946 4844 c-3 -9 -6 -53 -6 -99 l0 -84 -166 -3 c-160 -3 -166 -4
-185 -27 -27 -33 -25 -86 6 -116 l24 -25 586 0 586 0 24 25 c40 39 28 111 -22
134 -14 6 -85 11 -172 11 l-148 0 -7 31 c-3 17 -6 48 -6 69 0 21 -3 52 -6 69
l-6 31 -248 0 c-217 0 -249 -2 -254 -16z"/>
<path d="M5654 4222 c-39 -31 -54 -83 -38 -127 10 -26 62 -48 99 -41 77 15
109 113 52 162 -33 28 -83 31 -113 6z"/>
<path d="M8764 4205 c-1 -5 -8 -55 -14 -110 -13 -115 -77 -584 -86 -632 l-6
-33 79 0 79 0 12 93 c10 74 17 97 37 116 l24 24 58 -116 58 -117 87 0 c49 0
88 4 88 9 0 6 -39 78 -86 161 l-86 151 123 119 124 119 -91 1 -90 0 -102 -104
c-56 -57 -102 -98 -102 -91 0 7 11 97 25 201 14 104 25 196 25 204 0 12 -15
15 -76 15 -43 0 -78 -4 -80 -10z"/>
<path d="M1326 4168 c-3 -18 -20 -139 -36 -268 -17 -129 -38 -279 -46 -332
-22 -151 -28 -139 68 -136 l82 3 53 360 c28 198 52 370 52 383 1 21 -2 22 -84
22 l-84 0 -5 -32z"/>
<path d="M1605 4189 c-4 -5 -9 -37 -12 -70 l-6 -59 112 0 111 0 0 -27 c0 -16
-5 -59 -11 -98 -5 -38 -21 -155 -34 -260 -14 -104 -28 -202 -31 -217 l-6 -28
85 0 84 0 44 313 44 312 117 3 c131 3 124 -2 130 87 l3 50 -312 3 c-215 1
-314 -1 -318 -9z"/>
<path d="M2535 3980 c-22 -11 -50 -27 -62 -36 -23 -16 -23 -16 -23 15 l0 31
-75 0 c-60 0 -75 -3 -75 -15 0 -8 -22 -177 -50 -376 -27 -199 -50 -365 -50
-370 0 -5 33 -9 74 -9 87 0 79 -11 97 138 7 57 16 105 20 108 5 3 21 -4 36
-15 38 -28 111 -37 169 -21 65 19 144 93 178 170 49 109 46 260 -7 332 -48 65
-152 87 -232 48z m72 -125 c31 -22 47 -78 39 -138 -13 -97 -67 -157 -140 -157
-47 0 -67 15 -86 64 -12 34 0 117 26 173 31 63 112 93 161 58z"/>
<path d="M3155 3981 c-17 -10 -44 -33 -59 -52 l-29 -34 5 48 6 47 -73 0 -72 0
-6 -47 c-18 -146 -58 -453 -63 -480 l-6 -33 80 0 80 0 11 98 c26 214 37 250
91 296 25 20 42 26 81 26 44 0 49 2 49 23 0 12 3 46 6 75 l7 52 -39 0 c-21 0
-53 -8 -69 -19z"/>
<path d="M3475 3987 c-112 -44 -175 -121 -205 -246 -29 -123 10 -236 98 -288
42 -25 56 -28 142 -28 98 0 144 14 209 64 l23 18 -27 44 c-15 24 -29 45 -30
47 -1 1 -26 -9 -56 -23 -58 -26 -113 -32 -152 -14 -28 12 -57 58 -57 88 0 21
4 21 175 21 l175 0 10 26 c6 14 10 53 10 87 -1 139 -82 218 -222 216 -35 0
-76 -6 -93 -12z m139 -129 c13 -13 27 -38 31 -55 l7 -33 -111 0 c-61 0 -111 2
-111 5 0 17 33 66 56 84 36 29 95 28 128 -1z"/>
<path d="M3985 3981 c-74 -34 -115 -95 -115 -170 0 -62 33 -100 130 -147 98
-48 113 -64 86 -93 -27 -30 -99 -28 -162 4 l-49 25 -17 -23 c-10 -12 -25 -37
-35 -55 -17 -32 -17 -34 1 -48 49 -36 130 -56 206 -52 144 9 220 76 220 196 0
76 -26 107 -130 154 -49 22 -91 47 -94 55 -9 22 30 53 67 53 17 0 52 -9 76
-20 24 -11 45 -20 46 -20 10 0 55 96 51 107 -3 8 -26 22 -52 33 -61 26 -173
27 -229 1z"/>
<path d="M4523 3984 c-63 -23 -128 -86 -165 -162 -30 -60 -33 -75 -33 -158 0
-83 2 -94 30 -139 75 -121 286 -142 409 -40 32 26 31 36 -13 93 l-17 23 -50
-26 c-68 -37 -135 -32 -176 14 -15 17 -28 42 -28 56 l0 25 179 0 179 0 6 31
c19 97 -6 203 -60 247 -63 52 -172 67 -261 36z m152 -129 c16 -15 25 -36 25
-55 l0 -30 -105 0 c-58 0 -105 2 -105 5 0 20 36 69 63 85 45 28 92 26 122 -5z"/>
<path d="M5191 3974 c-29 -15 -55 -33 -58 -40 -11 -29 -24 -13 -17 21 l6 35
-76 0 c-57 0 -76 -3 -76 -13 0 -8 -16 -130 -35 -271 -19 -142 -35 -262 -35
-267 0 -6 33 -9 77 -7 l77 3 23 159 c24 176 32 202 72 240 38 37 80 43 114 16
34 -27 35 -59 7 -265 -11 -81 -20 -149 -20 -151 0 -2 35 -4 78 -4 l78 0 24
173 c28 208 30 280 6 325 -39 75 -145 95 -245 46z"/>
<path d="M6017 3985 c-127 -47 -209 -170 -210 -314 -1 -120 35 -183 128 -227
92 -43 219 -28 309 37 112 80 164 267 110 394 -17 40 -70 90 -116 109 -47 20
-169 20 -221 1z m164 -144 c26 -26 29 -36 29 -91 0 -98 -39 -168 -107 -191
-27 -9 -40 -7 -70 8 -21 10 -43 29 -50 43 -34 67 4 212 64 244 47 26 100 20
134 -13z"/>
<path d="M6715 3984 c-16 -8 -40 -27 -52 -42 l-22 -27 -1 38 0 37 -69 0 -70 0
-5 -42 c-37 -275 -66 -497 -66 -506 0 -8 24 -12 75 -12 41 0 75 4 75 8 0 58
44 300 60 332 26 51 72 80 126 80 l42 0 6 58 c4 31 9 65 12 75 5 14 -1 17 -38
17 -24 0 -56 -7 -73 -16z"/>
<path d="M7024 3979 c-60 -23 -134 -92 -163 -152 -43 -88 -49 -201 -16 -280
61 -145 297 -171 437 -48 65 58 100 137 106 239 7 128 -36 207 -134 248 -49
20 -169 17 -230 -7z m177 -138 c26 -27 29 -36 29 -93 -1 -114 -60 -194 -142
-192 -34 1 -48 8 -70 33 -24 27 -28 40 -28 89 0 72 36 154 77 176 47 26 100
20 134 -13z"/>
<path d="M8335 3985 c-52 -18 -112 -82 -120 -129 -17 -91 27 -157 132 -196 86
-32 113 -66 81 -98 -22 -22 -109 -14 -157 13 -24 14 -45 24 -46 23 -2 -2 -17
-27 -35 -57 -35 -60 -36 -58 39 -93 58 -27 157 -35 217 -18 94 27 166 130 148
213 -12 56 -42 85 -127 126 -103 48 -116 62 -88 90 27 27 80 27 131 1 22 -11
43 -20 47 -20 8 0 63 92 63 104 0 4 -24 18 -52 31 -62 29 -167 33 -233 10z"/>
<path d="M5600 3981 c0 -5 -14 -110 -30 -233 -17 -122 -33 -245 -36 -271 l-6
-48 78 3 78 3 33 245 c17 135 35 260 38 278 l6 32 -81 0 c-44 0 -80 -4 -80 -9z"/>
<path d="M7440 3984 c0 -16 104 -512 111 -532 8 -21 13 -23 86 -20 l78 3 41
75 c42 76 246 458 252 472 2 5 -34 8 -81 8 l-85 0 -76 -166 c-42 -91 -79 -177
-82 -190 -3 -13 -9 -26 -13 -29 -4 -2 -20 76 -35 173 -15 97 -30 185 -32 195
-5 14 -18 17 -85 17 -43 0 -79 -3 -79 -6z"/>
<path d="M7939 3589 c-62 -66 -25 -164 62 -164 54 0 89 37 96 98 5 39 2 49
-20 71 -39 39 -99 36 -138 -5z"/>
</g>
</svg>
